HIERARCHY
ROOT Bone
{
	OFFSET 0.000000 0.000000 0.000000
	CHANNELS 6 Xposition Yposition Zposition Xrotation Yrotation Zrotation
	JOINT Bone.001
	{
		OFFSET -0.001784 -0.086483 0.004492
		CHANNELS 3 Xrotation Yrotation Zrotation
		JOINT Bone.002
		{
			OFFSET 0.000000 0.052750 0.572341
			CHANNELS 3 Xrotation Yrotation Zrotation
			JOINT Bone.003
			{
				OFFSET 0.000000 0.042200 0.448378
				CHANNELS 3 Xrotation Yrotation Zrotation
				End Site
				{
					OFFSET 0.000000 -0.332327 -0.263752
				}
			}
		}
		JOINT Bone.004
		{
			OFFSET 0.000000 0.052750 0.572341
			CHANNELS 3 Xrotation Yrotation Zrotation
			JOINT Bone.009
			{
				OFFSET 0.414090 0.000000 -0.113413
				CHANNELS 3 Xrotation Yrotation Zrotation
				JOINT Bone.010
				{
					OFFSET 0.087038 0.000000 -0.321777
					CHANNELS 3 Xrotation Yrotation Zrotation
					End Site
					{
						OFFSET 0.131876 -0.075239 -0.342626
					}
				}
			}
		}
		JOINT Bone.005
		{
			OFFSET 0.000000 0.052750 0.572341
			CHANNELS 3 Xrotation Yrotation Zrotation
			JOINT Bone.006
			{
				OFFSET -0.416727 0.000000 -0.108138
				CHANNELS 3 Xrotation Yrotation Zrotation
				JOINT Bone.007
				{
					OFFSET -0.063300 0.000000 -0.319139
					CHANNELS 3 Xrotation Yrotation Zrotation
					End Site
					{
						OFFSET -0.112133 -0.073991 -0.346209
					}
				}
			}
		}
	}
	JOINT Bone.008
	{
		OFFSET -0.001784 -0.086483 0.004492
		CHANNELS 3 Xrotation Yrotation Zrotation
		JOINT Bone.014
		{
			OFFSET 0.121326 0.000000 -0.079125
			CHANNELS 3 Xrotation Yrotation Zrotation
			JOINT Bone.015
			{
				OFFSET 0.134513 0.000000 -0.379802
				CHANNELS 3 Xrotation Yrotation Zrotation
				JOINT Bone.016
				{
					OFFSET 0.079125 0.103285 -0.352588
					CHANNELS 3 Xrotation Yrotation Zrotation
					End Site
					{
						OFFSET 0.064034 -0.315648 -0.047475
					}
				}
			}
		}
	}
	JOINT Bone.011
	{
		OFFSET -0.001784 -0.086483 0.004492
		CHANNELS 3 Xrotation Yrotation Zrotation
		JOINT Bone.012
		{
			OFFSET -0.126601 0.000000 -0.068575
			CHANNELS 3 Xrotation Yrotation Zrotation
			JOINT Bone.013
			{
				OFFSET -0.116051 0.000000 -0.377165
				CHANNELS 3 Xrotation Yrotation Zrotation
				JOINT Bone.017
				{
					OFFSET -0.063300 0.111013 -0.363216
					CHANNELS 3 Xrotation Yrotation Zrotation
					End Site
					{
						OFFSET -0.068796 -0.319734 -0.050113
					}
				}
			}
		}
	}
}
MOTION
Frames: 18
Frame Time: 0.041667
0.000000 0.000000 0.000000 0.000000 0.000000 0.000000 4.030521 -0.513535 3.915085 -0.000000 -0.000000 0.000000 -5.853912 0.000000 -0.000003 -0.000000 0.000000 0.000000 -0.000000 -0.000002 0.000000 0.000001 0.000003 0.000000 -0.000001 0.000001 0.000000 -0.000000 -0.000001 0.000001 0.000000 0.000002 -0.000000 -0.000000 0.000000 -0.000002 -8.586171 3.246172 6.701946 18.871480 3.103579 -2.427237 -9.753473 -12.084492 -1.547442 -0.000000 -0.000000 0.000001 -1.281099 1.699332 -1.649748 0.000001 0.000000 -0.000001 -0.000003 0.000001 0.000002 
0.000000 0.000000 0.000000 -0.004649 0.166739 -0.005818 4.767117 -0.584528 3.907595 -0.000000 0.000000 0.000000 -5.979444 0.010434 0.009655 0.010483 0.100945 0.396695 1.463164 0.129327 0.083928 -0.296582 0.053491 0.059489 0.013086 0.127119 0.499493 -2.032468 0.147612 0.232978 -1.194392 0.087467 0.064580 -0.000000 -0.000001 -0.000001 -10.167050 3.246176 6.701944 20.190278 2.976413 -2.256934 -9.748172 -12.084093 -1.546645 0.000002 0.000001 0.000002 0.205368 1.567676 -2.062794 0.027768 -0.038658 0.036492 0.744641 0.043091 -0.051028 
0.000000 0.000000 0.000000 -0.017183 0.619378 -0.021546 6.771587 -0.778140 3.891846 -0.000000 0.000000 0.000000 -6.320208 0.038651 0.035989 0.035412 0.375290 1.473367 5.461321 0.493252 0.296188 -1.158446 0.196195 0.218556 0.043033 0.472958 1.856233 -7.681034 0.514288 0.886020 -4.459261 0.319438 0.250225 0.000002 -0.000002 -0.000001 -14.511367 3.246173 6.701943 23.804741 2.649100 -1.783472 -9.713898 -12.084577 -1.541820 0.000003 0.000004 0.000001 4.264137 1.153847 -3.173518 0.147186 -0.135321 0.130522 2.778658 0.153949 -0.180858 
0.000000 0.000000 0.000000 -0.035435 1.286561 -0.044550 9.737214 -1.065305 3.880983 -0.000000 -0.000000 -0.000001 -6.822470 0.079951 0.075106 0.062743 0.780288 3.059799 11.412522 1.060351 0.564003 -2.544266 0.400127 0.449409 0.072250 0.984276 3.857862 -16.318155 0.951082 1.904360 -9.323347 0.644412 0.550468 -0.000002 0.000002 -0.000004 -21.036887 3.246179 6.701936 29.211397 2.217625 -1.055152 -9.623073 -12.088458 -1.529285 0.000001 0.000003 0.000001 10.293816 0.394913 -4.767872 0.412469 -0.260786 0.259150 5.803967 0.303916 -0.355882 
0.000000 0.000000 0.000000 -0.057250 2.096871 -0.072215 13.352121 -1.415468 3.887861 0.000002 -0.000000 -0.000000 -7.432462 0.129644 0.123095 0.080840 1.272720 4.985683 18.703390 1.788296 0.809858 -4.413171 0.636820 0.724748 0.083689 1.606683 6.291072 -27.197409 1.290230 3.194772 -15.292573 1.006436 0.954709 -0.000000 -0.000004 -0.000001 -29.108036 3.246179 6.701940 35.874319 1.783130 -0.132700 -9.448149 -12.098204 -1.505351 0.000001 0.000001 0.000002 17.654157 -0.756018 -6.601499 0.877768 -0.385557 0.399672 9.516649 0.466352 -0.540557 
0.000000 0.000000 0.000000 -0.080564 2.978790 -0.101992 17.295516 -1.796041 3.920526 -0.000002 -0.000000 -0.000001 -8.096365 0.183140 0.175920 0.081715 1.808721 7.080907 26.672894 2.612466 0.970571 -6.724412 0.878754 1.016387 0.066070 2.284187 8.941045 -39.319353 1.406108 4.583300 -21.831779 1.352213 1.437870 -0.000002 -0.000002 -0.000001 -37.989895 3.246177 6.701926 43.197238 1.429832 0.893651 -9.161560 -12.116205 -1.466283 0.000001 0.000001 0.000002 25.658121 -2.269512 -8.422183 1.597112 -0.480085 0.529193 13.602144 0.620217 -0.694996 
0.000000 0.000000 0.000000 -0.103440 3.860720 -0.131437 21.240039 -2.173468 3.979312 -0.000001 0.000000 -0.000000 -8.760324 0.236021 0.229361 0.062990 2.344219 9.176122 34.637368 3.450011 1.015392 -9.437043 1.100676 1.294175 0.017107 2.960028 11.592165 -51.475584 1.287482 5.838868 -28.374602 1.640713 1.957345 0.000003 -0.000003 -0.000001 -46.871767 3.246183 6.701926 50.536942 1.202282 1.905467 -8.735651 -12.144701 -1.408249 -0.000000 0.000002 0.000001 33.611183 -4.017198 -10.017831 2.624506 -0.515172 0.624000 17.737103 0.752223 -0.774871 
0.000000 0.000000 0.000000 -0.124080 4.671065 -0.158211 24.857925 -2.515224 4.055950 0.000000 0.000000 0.000000 -9.370459 0.284062 0.279004 0.028483 2.835631 11.103328 41.938625 4.215904 0.953993 -12.509872 1.280864 1.525266 -0.055453 3.578214 14.029391 -62.454416 1.058311 6.752914 -34.353256 1.850931 2.457823 0.000003 0.000000 -0.000001 -54.942909 3.246188 6.701919 57.247364 1.093469 2.773593 -8.142631 -12.185735 -1.327269 0.000003 -0.000000 0.000002 40.867313 -5.795161 -11.261487 4.013919 -0.462714 0.658605 21.596240 0.856860 -0.732859 
0.000000 0.000000 0.000000 -0.140809 5.338288 -0.180059 27.827379 -2.791568 4.134871 -0.000000 0.000000 0.000000 -9.872889 0.323222 0.320263 -0.012499 3.240459 12.696014 47.981976 4.839126 0.829684 -15.901555 1.402290 1.673794 -0.135038 4.084873 16.039413 -71.246851 0.920896 7.199507 -39.228946 1.982988 2.880326 -0.000000 -0.000001 -0.000001 -61.468445 3.246192 6.701916 62.725199 1.052354 3.378330 -7.354455 -12.240970 -1.219143 0.000001 -0.000002 0.000001 46.860944 -7.373249 -12.122976 5.819405 -0.296710 0.604633 24.859945 0.933559 -0.520509 
0.000000 0.000000 0.000000 -0.152023 5.790964 -0.194785 29.835137 -2.975877 4.196303 -0.000000 -0.000000 -0.000000 -10.213817 0.349586 0.348453 -0.047108 3.517251 13.788374 52.236115 5.267913 0.703037 -19.570976 1.453687 1.700949 -0.199505 4.428483 17.410634 -77.092960 1.074324 7.118042 -42.503342 2.051296 3.169655 -0.000000 -0.000003 -0.000002 -65.812759 3.246196 6.701915 66.426417 1.007784 3.617439 -6.342762 -12.311686 -1.079395 0.000002 0.000003 0.000002 51.093012 -8.535046 -12.641609 8.094901 0.005200 0.429631 27.218621 0.980983 -0.089201 
0.000000 0.000000 0.000000 -0.156127 5.957717 -0.200190 30.573074 -3.043050 4.220498 -0.000001 0.000000 0.000000 -10.339408 0.359256 0.358877 -0.062005 3.624729 14.213417 54.184458 5.460788 0.634451 -23.477894 1.430376 1.565417 -0.226148 4.558518 17.931499 -79.351478 1.663715 6.435295 -43.701528 2.072146 3.276432 0.000003 -0.000005 -0.000001 -67.393654 3.246197 6.701915 67.841004 0.899547 3.396260 -5.078843 -12.398549 -0.903191 -0.000000 0.000000 -0.000000 53.071895 -9.086498 -12.874173 10.893721 0.459620 0.096000 28.371026 0.988557 0.609981 
0.000000 0.000000 0.000000 -0.156127 5.957717 -0.200190 30.573074 -3.043050 4.220498 -0.000001 0.000000 0.000000 -10.339408 0.359256 0.358877 0.037970 2.904142 12.999442 51.865871 5.252688 0.974146 -27.592885 0.976792 1.230243 -0.134929 4.022131 17.019897 -76.810129 3.239579 5.100603 -43.389972 2.091998 3.367620 0.000003 -0.000005 -0.000001 -64.559283 2.996083 7.022563 66.446662 0.670260 2.614956 -2.853506 -12.472151 -0.451880 -0.000000 0.000000 -0.000000 50.807107 -9.533873 -12.999969 15.233895 1.408645 -0.584494 27.861477 0.591377 1.895654 
0.000000 0.000000 0.000000 -0.156127 5.957717 -0.200190 30.573074 -3.043050 4.220498 -0.000001 0.000000 0.000000 -10.339408 0.359256 0.358877 0.233692 0.900619 9.613660 44.097802 4.455587 1.921143 -31.845726 -0.133689 0.664113 0.071508 2.539506 14.493989 -69.028515 6.031846 2.888747 -42.543998 2.148411 3.614700 0.000003 -0.000005 -0.000001 -56.441955 2.371341 8.003506 62.442129 0.366981 1.302396 0.784947 -12.472795 0.437952 -0.000000 0.000000 -0.000000 43.036274 -10.460192 -13.265197 21.826797 3.008600 -1.825180 25.716446 -0.512609 3.900322 
0.000000 0.000000 0.000000 -0.156127 5.957717 -0.200190 30.573074 -3.043050 4.220498 -0.000001 0.000000 0.000000 -10.339408 0.359256 0.358877 0.304249 -2.117155 4.535340 31.358478 2.893071 3.184199 -36.132776 -1.709316 -0.147737 0.256962 0.319080 10.739343 -56.155397 9.463446 -0.780635 -41.296768 2.238246 3.977527 0.000003 -0.000005 -0.000001 -43.388107 1.674862 9.734002 56.378372 0.139605 -0.443125 5.471863 -12.349271 1.651246 -0.000000 0.000000 -0.000000 30.142523 -11.751343 -13.882879 30.257192 4.955021 -3.705828 22.358793 -2.268733 6.366236 
0.000000 0.000000 0.000000 -0.156127 5.957717 -0.200190 30.573074 -3.043050 4.220498 -0.000001 0.000000 0.000000 -10.339408 0.359256 0.358877 0.021636 -5.826595 -1.750839 14.483191 0.462641 4.256140 -40.342342 -3.562257 -1.188368 0.285363 -2.408737 6.144255 -38.558955 12.456746 -6.357558 -39.781870 2.357992 4.415687 0.000003 -0.000005 -0.000001 -26.048400 1.385038 12.187822 48.858177 0.134988 -2.482287 10.820272 -12.062434 3.059637 -0.000000 0.000000 -0.000000 12.859216 -13.136715 -15.077924 40.007474 6.897635 -6.228425 18.213598 -4.593900 9.017246 
0.000000 0.000000 0.000000 -0.156127 5.957717 -0.200190 30.573074 -3.043050 4.220498 -0.000001 0.000000 0.000000 -10.339408 0.359256 0.358877 -0.763062 -9.831933 -8.735040 -4.808816 -2.557399 4.548859 -44.350081 -5.512946 -2.405211 0.065310 -5.382130 1.103937 -17.843157 13.604105 -13.388415 -38.133520 2.501476 4.888966 0.000003 -0.000005 -0.000001 -6.081259 1.971831 14.969172 40.577997 0.444209 -4.621942 16.420106 -11.605496 4.525987 -0.000000 0.000000 -0.000000 -7.068575 -14.181616 -16.857918 50.389116 8.500131 -9.240911 13.701723 -7.335059 11.589564 
0.000000 0.000000 0.000000 -0.156127 5.957717 -0.200190 30.573074 -3.043050 4.220498 -0.000001 0.000000 0.000000 -10.339408 0.359256 0.358877 -2.051513 -13.704250 -15.864455 -24.022084 -5.481122 3.827177 -48.015270 -7.396421 -3.709946 -0.418722 -8.321869 -3.975984 2.874868 12.252593 -20.230817 -36.486242 2.658494 5.357978 0.000003 -0.000005 -0.000001 13.852588 3.472144 17.384973 32.301771 1.058706 -6.643372 21.852576 -11.014506 5.917890 -0.000000 0.000000 -0.000000 -26.916876 -14.557860 -18.857672 60.564196 9.545349 -12.429728 9.225262 -10.258890 13.866208 
0.000000 0.000000 0.000000 -0.156127 5.957717 -0.200190 30.573074 -3.043050 4.220498 -0.000001 0.000000 0.000000 -10.339408 0.359256 0.358877 -3.670417 -17.060114 -22.534321 -40.735801 -7.692174 2.442752 -51.179372 -9.067260 -4.982605 -1.094700 -10.960123 -8.677451 20.512766 9.251448 -25.322795 -34.974148 2.814524 5.784689 0.000003 -0.000005 -0.000001 31.136172 5.377495 18.961531 24.786342 1.863294 -8.355969 26.710746 -10.366310 7.122822 -0.000000 0.000000 -0.000000 -44.039697 -14.329337 -20.583036 69.660129 10.012172 -15.403082 5.156936 -13.071543 15.701983 
